<?xml version="1.0" encoding="UTF-8"?><svg xmlns="http://www.w3.org/2000/svg" viewBox="0 0 591.82 138.1"><defs><style>.d{fill:#f39800;}.e{fill:#595757;}</style></defs><g id="a"/><g id="b"><g id="c"><g><g><path class="d" d="M26.15,60.26l-4.29,4.08c2.47,4.66,8.17,11.63,8.17,11.63l7.92-6.83s-8.3-3.95-11.8-8.88Z"/><path class="d" d="M52.86,60.26c-3.5,4.94-11.8,8.88-11.8,8.88l7.92,6.83s5.7-6.97,8.17-11.63l-4.29-4.08Z"/><polygon class="d" points="30.49 78.14 30.49 86 35.15 86 35.15 89.66 30.49 110.59 39.5 122.93 48.51 110.59 43.85 89.66 43.85 86 48.51 86 48.51 78.14 39.5 70.37 30.49 78.14"/></g><polygon class="e" points="14.8 59.86 32.72 138.1 2.03 93.68 10.38 88.02 0 84.13 14.8 59.86"/><polygon class="e" points="63.77 57.54 45.31 138.1 76.92 92.36 68.32 86.53 79.01 82.53 63.77 57.54"/><g><path class="d" d="M21.74,26.75c-9.23,25.85,12.23,33.12,12.23,33.12,0,0,22.07,5.01,30.04-20.95-5.14-3.04-21.54-11.68-42.27-12.16Z"/><path class="e" d="M67.63,8.99l-15.47-4.36L36.69,.26c-3.12-.88-6.37,.57-7.25,3.23l-6.21,18.87c20.2,.76,35.98,8.64,42.16,12.21l6.31-19.16c.88-2.67-.94-5.54-4.07-6.42Z"/></g><g><path class="e" d="M149.45,64.41c.28,28.69-7.26,47.91-33.1,52.78,13.52-14.16,18.11-23.26,17.93-41.19,0,0-23.26-.55-27.77-.55l2.11,14.9-12.41,.83s-.64-20.04-.83-26.21c0,0,45.61-.55,54.07-.55Z"/><path class="e" d="M182.54,79.49s-11.68-6.71-13.79-8.18l6.44-10.02s7.54,3.03,13.42,6.25l-6.07,11.95Zm-12.32,21.7c23.35-1.84,36.04-10.94,49.01-23.26-3.13,19.95-17.93,34.3-42.94,38.16l-6.07-14.9Z"/><path class="e" d="M249.98,62.29l.83,27.22-11.68,.55-.28-27.68,11.13-.09Zm-3.68,55.72c20.78-15.63,26.11-40.55,19.03-57.01l14.44-.55c4.6,30.89-5.33,53.15-33.47,57.56Z"/><path class="e" d="M303.61,80.59c12.6,.18,47.54,.55,54.43-.28l-.92,12.41s-28.23-.09-51.95,.28l-1.56-12.41Z"/><path class="e" d="M416.8,57.97s10.21,.37,14.34,.37c0,0,.55,50.66,.09,56,0,0-7.26,.55-14.99,.55,0,0-20.32-29.88-23.26-34.76l.46,34.21s-8.37,.46-13.98,.18c0,0,.28-36.69,0-54.62l12.41-.92s23.36,36.41,25.1,40.92l-.18-41.93Z"/><path class="e" d="M510.73,110.48c-4.32,4.41-14.62,9.19-24.09,.55-5.88,6.9-31.45,11.4-37.52-11.31-3.68-13.7,6.53-28.23,20.96-27.77,6.44,.28,10.76,2.48,12.96,4.78l-.46-6.07,15.54,.18c-3.4,26.39-3.03,38.53,12.6,39.63Zm-29.52-17.1c-.18-3.86-2.48-7.82-8.28-8.64-6.16-1.01-10.94,4.05-10.3,10.67,.18,3.03,3.13,8.46,9.93,7.82,4.04-.28,9.1-3.22,8.64-9.84Z"/><path class="e" d="M554.94,71.95l10.67,3.31c-.46,1.01-12.23,30.62-26.67,43.58-12.23-18.11-16.83-22.53-25.47-43.86l13.33-4.69s8.64,21.06,13.7,30.53c8-14.34,10.11-19.22,14.44-28.87Z"/><path class="e" d="M589.98,54.94l.46,10.94s-6.53,1.1-10.76,1.38c0,0-1.47-6.44-1.93-11.31l12.23-1.01Zm-10.76,17.84l11.86,.18s.74,40,.74,42.39l-13.79-.28s.83-35.4,1.2-42.3Z"/></g><g><path class="e" d="M182.99,27.68c.31,.03,.52,.13,.52,.34,0,.18-.1,.31-.44,.57-.03,1.17-.03,1.82-.05,3.2,3.12-.1,5.95-.26,7.88-.44l.08,2.7c-.94,.03-1.77,.03-2.94,.03-.7,0-2.37,.05-5.02,.16v4.99c.29,1.2,.39,1.85,.39,2.81,0,2.86-.99,5.28-2.83,6.89-1.17,1.01-2.89,1.92-5.33,2.78-.52-1.4-.6-1.56-1.33-2.63,1.38-.36,2.68-.83,3.61-1.33,1.4-.75,2.16-1.48,2.86-2.76-.75,.47-1.3,.62-2.11,.62-2.68,0-4.73-2.37-4.73-5.46,0-2.42,1.56-4.16,3.72-4.16,1.07,0,2.03,.29,3.04,.94-.03-.6-.03-.83-.03-1.01,0-.49,0-1.09-.03-1.61-1.35,.05-2.03,.08-3.9,.13-3.64,.13-3.8,.13-7.67,.31l-.18-2.76c1.46,.03,2.21,.05,3.35,.05,2.89,0,5.36-.05,8.4-.18,0-2.42-.03-3.41-.1-4.32l2.83,.13Zm-4.29,15.57c1.14,0,1.92-.81,1.92-1.98,0-1.53-1.43-2.99-2.94-2.99-.94,0-1.59,.75-1.59,1.85,0,1.69,1.2,3.12,2.6,3.12Z"/><path class="e" d="M206.5,29.27c.23,.16,.36,.31,.36,.49,0,.21-.08,.29-.73,.47-1.87,2.03-3.46,3.64-5.02,5.17-.36,.36-2.52,2.31-3.41,3.15-.44,.42-.52,.52-.52,.68s.16,.36,.55,.68c1.04,.81,3.04,2.7,5.62,5.33,1.61,1.64,2.44,2.57,3.74,4.24l-2.42,1.95c-1.64-2.29-2.42-3.25-4.16-5.07-2.11-2.24-3.59-3.67-5.23-5.1-1.07-.94-1.35-1.38-1.35-2.03s.31-1.09,1.43-2.11c1.27-1.14,3.51-3.35,4.42-4.21,1.77-1.72,3.61-3.9,4.37-5.15l2.34,1.51Zm1.35,1.2c1.22,.75,2,1.38,3.28,2.6l-1.3,1.43c-1.2-1.3-1.79-1.79-3.12-2.7l1.14-1.33Zm2.03-2.26c1.22,.75,2.03,1.38,3.28,2.6l-1.3,1.43c-1.2-1.27-1.77-1.77-3.12-2.68l1.14-1.35Z"/><path class="e" d="M228.58,43.21v4.89c0,.68,.18,.73,2.55,.73,.94,0,2.47-.1,2.81-.21,.75-.21,.94-.7,.94-2.6,0-.21,0-.34-.05-.62,1.01,.47,1.53,.62,2.55,.83-.03,3.28-.23,3.95-1.33,4.5-.65,.31-2.39,.47-5.54,.47-1.87,0-2.63-.08-3.28-.29-.91-.31-1.27-.99-1.27-2.39v-5.3h-1.56c-.55,2.52-1.07,3.67-2.21,4.89-1.59,1.66-3.35,2.44-8.03,3.59-.18-.99-.47-1.69-.99-2.5,3.04-.6,4.32-1.01,5.62-1.77,1.69-.99,2.47-2.08,3.02-4.21h-1.51v1.25h-2.63c.05-1.04,.08-2.55,.08-4.58v-7.02c0-1.56-.03-3.3-.08-4.13,.7,.03,1.33,.05,2.21,.05h10.84c.91,0,1.53,0,2.21-.05-.05,.86-.08,2.05-.08,4.13v6.66c0,2.08,.03,3.59,.08,4.58h-2.6v-.88h-1.74Zm1.74-12.14h-10.04v1.82h10.04v-1.82Zm0,4h-10.04v1.72h10.04v-1.72Zm0,3.9h-10.04v1.98h10.04v-1.98Z"/><path class="e" d="M237.59,34.55c1.64-.31,1.92-.39,5.38-1.22,4.13-1.01,6.37-1.35,8.5-1.35,5.59,0,8.79,2.68,8.79,7.38,0,3.51-1.95,6.45-5.28,7.9-2.34,1.04-4.65,1.56-9.31,2.05-.21-1.12-.44-1.9-.88-2.81,4.13-.36,6.29-.78,8.42-1.66,2.6-1.07,4.06-3.04,4.06-5.51,0-1.9-.78-3.38-2.21-4.11-.94-.47-2.05-.68-3.67-.68-2.08,0-4.37,.39-7.51,1.3-1.27,.36-1.48,.44-3.2,1.04-.99,.36-1.01,.36-1.95,.68l-1.14-3.02Z"/><path class="e" d="M267.75,29.24c.26,.05,.42,.21,.42,.39,0,.21-.13,.34-.62,.55-.88,4.71-1.17,7.07-1.17,10.04,0,3.22,.29,6.47,.78,9.05-.91,.13-1.4,.26-2.76,.75-.49-2.83-.73-5.67-.73-9.05s.18-5.15,.96-10.09c.13-.81,.21-1.51,.29-2.18l2.83,.55Zm10.69,7.62c-1.79,.1-2.96,.16-4.39,.16-.7,0-2.29-.03-3.43-.05v-2.81c1.38,.23,2.83,.13,4.29,.13,.94,0,2.13-.05,3.51-.13-.03-.73-.05-1.12-.1-3.67-.03-.65-.03-1.09-.1-1.87l2.86,.16c.29,.03,.49,.16,.49,.36s-.1,.34-.55,.57l.05,4.32c1.87-.13,3.33-.34,4.6-.62l.31,2.73c-1.74,.31-2.91,.47-4.91,.6,0,3.07-.18,6.06-.42,7.25-.47,2.29-1.53,4.11-3.22,5.62-.65,.57-1.27,1.01-2.63,1.82-.73-1.4-.91-1.66-1.64-2.37,1.61-.91,2.24-1.35,2.94-2.05,1.77-1.82,2.34-4.13,2.34-9.52v-.62Z"/><path class="e" d="M301.11,34.21c-1.79,.36-3.77,.62-5.62,.7-.88,4.65-2.94,12.17-4.29,15.7-.91-.57-1.66-.86-2.7-1.09,1.56-3.46,2.91-7.98,4.39-14.56-1.01,.03-1.07,.03-1.33,.03-.73,0-1.74-.05-2.68-.16l.05-2.52c1.12,.1,1.77,.13,2.83,.13,.21,0,.75,0,1.59-.03,.03-.08,.1-.47,.36-1.98,.13-.73,.16-.94,.29-2.11,.03-.29,.05-.39,.08-.68l2.76,.52c.18,.03,.34,.18,.34,.31,0,.16-.13,.23-.49,.39-.16,.83-.18,.99-.68,3.48,1.79-.1,2.65-.23,4.76-.7l.34,2.55Zm-1.74,10.11l-.03,.52c-.03,.75,.18,1.43,.49,1.82,.6,.75,2.16,1.14,4.73,1.14,2.05,0,3.3-.08,5.56-.36-.29,1.04-.36,1.48-.42,2.73-1.85,.18-2.78,.23-4.47,.23-3.8,0-5.64-.34-6.81-1.27-1.04-.81-1.59-2.08-1.53-3.95l.03-.86h2.44Zm-.78-6.45c2.96-.96,4.78-1.27,7.31-1.27,1.27,0,2.11,.05,3.64,.29l-.44,2.57c-1.64-.18-2.42-.23-3.33-.23-2.31,0-3.98,.29-6.29,1.12l-.88-2.47Z"/><path class="e" d="M316.42,30.96c.31,.03,.57,.23,.57,.42,0,.21-.16,.39-.52,.57-.05,.7-.08,.91-.08,1.48v2.63c0,2.76,.44,6.06,1.09,7.7,.6,1.46,1.35,2.39,1.92,2.39,.62,0,1.3-1.14,2.08-3.51,.73,.65,1.07,.91,2.26,1.66-.16,.34-.26,.62-.52,1.25-.42,1.01-1.2,2.21-1.82,2.78-.47,.42-1.22,.68-1.87,.68-1.43,0-2.55-.7-3.59-2.26-1.04-1.56-1.66-3.51-1.92-5.62-.21-1.77-.39-4.65-.39-6.19,0-1.66-.1-3.85-.18-4.32l2.96,.34Zm12.95,1.35c3.04,2.78,5.04,6.14,6.06,10.14l-2.68,1.2c-.6-2.24-1.2-3.85-2-5.33-.88-1.64-2.16-3.33-3.38-4.5l2-1.51Z"/><path class="e" d="M348.76,32.86c-.05,1.22-.1,2.34-.1,2.81-.03,.99-.03,1.51-.05,2.29l6.92-.18c1.12-.03,2.76-.1,3.61-.16l.05,2.63h-3.64l-6.97,.18c-.03,1.85-.05,2.89-.05,3.15,0,3.07,.08,3.12,2.96,3.12,2.42,0,4.08-.1,6.76-.44l.05,2.6c-3.04,.31-4.89,.39-8.03,.39-1.98,0-2.81-.16-3.43-.65-.73-.57-.94-1.33-.94-3.46,0-1.25,0-1.79,.05-4.65l-3.8,.08c-.57,0-2.91,.13-3.64,.18l-.03-2.63h3.64l3.85-.1,.08-2.63c.03-1.12,.03-1.46,.05-2.5l-1.77,.05c-.73,.03-2.31,.08-3.12,.13l-.03-2.57c.6,0,1.12,.03,1.61,.03,.52,0,.99-.03,1.51-.03l8.87-.21c1.46-.03,2.08-.08,3.12-.13l.03,2.57h-3.09l-4.47,.13Z"/><path class="e" d="M380.37,30.75c.18,.08,.31,.21,.31,.34,0,.21-.16,.34-.55,.47-1.51,5.15-3.41,8.89-6.06,11.88-2.47,2.78-5.07,4.81-8.79,6.84-.57-1.2-1.01-1.79-1.92-2.52,5.02-2.68,7.72-4.94,10.11-8.45,1.64-2.42,3.59-6.42,4.03-9.67l2.86,1.12Z"/><path class="e" d="M394.6,28.83c.23,.03,.39,.16,.39,.34s-.08,.26-.52,.49c-.36,1.69-.47,2.13-.96,3.93,.44-.03,1.33-.05,1.92-.05,1.22,0,2.16,.18,2.89,.6,1.35,.75,1.82,1.87,1.82,4.39,0,4.78-.52,7.9-1.64,9.67-.81,1.27-2.21,1.92-4.16,1.92-.75,0-1.72-.05-2.16-.1,0-1.2-.05-1.9-.23-2.83,.86,.16,1.53,.23,2.24,.23,1.04,0,1.72-.34,2.11-1.01,.57-.96,.88-2.31,1.09-4.55,.08-.88,.13-1.72,.13-2.37,0-3.02-.34-3.56-2.08-3.56-.96,0-1.64,.03-2.31,.13-.31,1.14-1.09,3.48-1.74,5.23-1.22,3.35-2.24,5.46-4.19,8.66-.81-.68-1.22-.94-2.31-1.43,1.69-2.52,2.63-4.37,3.93-7.7,.75-1.92,1.2-3.2,1.51-4.45-1.77,.26-1.82,.23-3.25,.49-.75,.13-.78,.16-1.64,.29l-.55-2.83c2.11-.16,4.5-.36,5.98-.52,.73-2.86,.99-4.21,1.09-5.41l2.65,.44Zm6.29,2.7c2.78,1.95,4.32,3.54,6.73,6.97l-2.26,1.85c-1.92-3.25-3.33-4.81-6.24-7.05l1.77-1.77Zm1.4-2.6c1.22,.78,2,1.4,3.28,2.63l-1.3,1.4c-1.2-1.27-1.79-1.77-3.12-2.68l1.14-1.35Zm2.03-2.24c1.22,.75,2,1.38,3.28,2.6l-1.3,1.43c-1.2-1.27-1.79-1.79-3.12-2.7l1.14-1.33Z"/><path class="e" d="M413.17,42.19c-.57,.78-.75,1.25-.75,2.03,0,.88,.47,1.61,1.3,2,1.22,.57,3.38,.88,6.19,.88s4.94-.26,7.23-.83c-.05,.86-.08,1.59-.08,2.24,0,.31,0,.49,.03,.94-2.47,.36-4.26,.49-7.15,.49-4.19,0-6.84-.49-8.5-1.61-1.14-.78-1.85-2.18-1.85-3.69,0-1.38,.34-2.24,1.51-3.77l2.08,1.33Zm-1.22-11.41c1.82,.1,4.55,.18,6.86,.18,2.57,0,3.95-.08,6.66-.36l.16,2.78c-2.91,.21-4.52,.26-7.28,.26-1.87,0-3.33-.03-6.5-.16l.1-2.7Z"/><path class="e" d="M436.08,42.19c-.57,.78-.75,1.25-.75,2.03,0,.88,.47,1.61,1.3,2,1.22,.57,3.38,.88,6.19,.88s4.94-.26,7.23-.83c-.05,.86-.08,1.59-.08,2.24,0,.31,0,.49,.03,.94-2.47,.36-4.26,.49-7.15,.49-4.19,0-6.84-.49-8.5-1.61-1.14-.78-1.85-2.18-1.85-3.69,0-1.38,.34-2.24,1.51-3.77l2.08,1.33Zm-1.22-11.41c1.82,.1,4.55,.18,6.86,.18,2.57,0,3.95-.08,6.66-.36l.16,2.78c-2.91,.21-4.52,.26-7.28,.26-1.87,0-3.33-.03-6.5-.16l.1-2.7Z"/><path class="e" d="M458.45,29.95c.26,.03,.42,.18,.42,.36,0,.21-.13,.31-.57,.52-.52,3.15-.83,6.79-.83,10.11s.39,6.37,1.07,8.14c-.78,.13-1.77,.39-2.89,.78-.68-2.65-.94-4.91-.94-7.9,0-3.28,.18-5.93,.68-10.43,.1-.81,.13-1.48,.13-2.03l2.94,.44Zm5.54,11.88c.03,3.93,.91,4.58,6.45,4.58,1.4,0,2.91-.13,5.23-.44-.29,1.09-.36,1.74-.39,2.86-1.64,.21-3.46,.34-5.28,.34-4.21,0-6.27-.57-7.36-2-.7-.94-1.12-2.26-1.12-3.8,0-1.01-.03-1.33-.03-1.48l2.5-.05Zm-.99-9.8c1.61,.13,2.63,.16,4.89,.16s4.34-.13,6.27-.42l.08,2.65c-1.82,.21-4.39,.36-6.47,.36-1.77,0-3.43-.05-4.86-.1l.1-2.65Z"/><path class="e" d="M495.25,35.56c.18,.05,.31,.18,.31,.29,0,.16-.1,.26-.44,.44-.16,.34-.18,.44-.31,.73,1.14,.18,2.26,.62,3.38,1.3,2.11,1.27,3.09,3.04,3.09,5.46,0,2.73-1.25,4.76-3.69,6.01-1.25,.65-2.47,1.04-3.98,1.35-.29-1.09-.52-1.64-1.12-2.52,2.16-.47,3.09-.81,4.19-1.48,1.17-.75,1.79-1.95,1.79-3.56,0-2.31-1.61-3.98-4.45-4.55-.13,.29-.49,1.12-.75,1.66-.65,1.33-1.64,3.09-2.73,4.47-.26,.34-.57,.68-1.14,1.25,.16,.47,.34,.88,.73,1.72-.7,.26-.94,.36-2.39,1.25-.21-.49-.31-.7-.49-1.25-1.3,1.01-2.63,1.48-4.06,1.48-2.44,0-3.93-1.43-3.93-3.72,0-2,.91-3.8,2.78-5.54,1.12-1.01,2.29-1.77,3.59-2.31,.05-2.29,.13-2.91,.23-4-1.79,.03-3.12,.03-3.95,.03-.1,0-.26,0-.44-.03l-.1-2.55c1.53,.08,2.47,.1,3.54,.1h1.27c.23-1.35,.36-2.52,.39-3.35l2.83,.44c.21,.03,.34,.16,.34,.31,0,.21-.03,.23-.42,.49-.08,.34-.13,.6-.18,.78-.16,.65-.18,.78-.26,1.22,3.09-.21,4.71-.49,6.63-1.09l.26,2.5c-2.21,.52-4.58,.83-7.28,.99-.18,1.17-.29,2.37-.34,3.33,1.35-.34,2.81-.49,4.16-.49,.36-1.04,.39-1.09,.55-1.77l2.39,.62Zm-13.39,10.3c0,.91,.55,1.51,1.35,1.51,.96,0,2.31-.65,3.28-1.59-.42-1.3-.7-3.43-.75-5.33-2.31,1.3-3.88,3.48-3.88,5.41Zm6.68-2.08c1.09-1.38,1.56-2.21,2.94-5.04-1.27,.13-1.87,.26-3.35,.7,.03,1.61,.13,2.83,.42,4.34Z"/><path class="e" d="M506.58,29.48c1.51,0,1.82,0,7.98-.47,1.74-.13,2.73-.26,3.54-.49l1.72,1.77c.18,.18,.23,.29,.23,.42,0,.23-.08,.29-.78,.52-.6,.52-1.04,.96-1.35,1.22-1.4,1.27-2.81,2.57-4.26,3.8-.36,.31-.91,.81-1.69,1.48,1.64-.68,2.83-.94,4.32-.94,2.11,0,4.21,.75,5.64,2.03,1.2,1.04,1.79,2.55,1.79,4.47,0,4.52-4.06,7.59-10.06,7.59-3.59,0-5.54-1.38-5.54-3.87,0-2.13,1.66-3.59,4.08-3.59,2.68,0,4.29,1.38,4.29,3.69,0,.42-.03,.62-.08,1.01,1.53-.42,2.34-.88,3.15-1.77,.81-.91,1.25-2.03,1.25-3.17,0-2.6-1.9-4.13-5.1-4.13-2.96,0-6.14,1.2-9.05,3.43l-1.59-2.31c2.55-1.43,6.4-4.65,10.79-9.07-4.78,.62-5.41,.7-8.89,1.3l-.39-2.91Zm7.46,18.1c0-1.35-.68-2.08-1.92-2.08-1.04,0-1.77,.6-1.77,1.43,0,1.07,.99,1.64,2.86,1.64,.21,0,.44-.03,.7-.05,.1-.39,.13-.6,.13-.94Z"/></g></g></g></g></svg>